# AST/ASF file generated using VICON BodyLanguage
# -----------------------------------------------
:version 1.10
:name VICON
:units
  mass 1.0
  length 0.45
  angle deg
:documentation
   .ast/.asf automatically generated from VICON data using
   VICON BodyBuilder and BodyLanguage model FoxedUp or BRILLIANT.MOD
:root
   order TX TY TZ RX RY RZ
   axis XYZ
   position 0 0 0  
   orientation 0 0 0 
:bonedata
  begin
     id 1 
     name lhipjoint
     direction 0.710188 -0.616876 0.339259 
     length 2.5669 
     axis 0 0 0  XYZ
  end
  begin
     id 2 
     name lfemur
     direction 0.34202 -0.939693 0  
     length 7.12796  
     axis 0 0 20  XYZ
    dof rx ry rz
    limits (-160.0 20.0)
           (-70.0 70.0)
           (-60.0 70.0)
  end
  begin
     id 3 
     name ltibia
     direction 0.34202 -0.939693 0   
     length 7.58108   
     axis 0 0 20   XYZ
    dof rx
    limits (-10.0 170.0)
  end
  begin
     id 4 
     name lfoot
     direction 0.0669471 -0.183936 0.980656   
     length 2.17365   
     axis -90 7.62852e-016 20   XYZ
    dof rx rz
    limits (-45.0 90.0)
           (-70.0 20.0)
  end
  begin
     id 5 
     name ltoes
     direction 1.53508e-011 -4.21705e-011 1   
     length 1.09427   
     axis -90 7.62852e-016 20   XYZ
    dof rx
    limits (-90.0 20.0)
  end
  begin
     id 6 
     name rhipjoint
     direction -0.700191 -0.625589 0.34405   
     length 2.53115  
     axis 0 0 0  XYZ 
  end
  begin
     id 7 
     name rfemur
     direction -0.34202 -0.939693 0   
     length 7.33006   
     axis 0 0 -20   XYZ
    dof rx ry rz
    limits (-160.0 20.0)
           (-70.0 70.0)
           (-70.0 60.0)
  end
  begin
     id 8 
     name rtibia
     direction -0.34202 -0.939693 0   
     length 7.64926   
     axis 0 0 -20   XYZ
    dof rx
    limits (-10.0 170.0)
 end
 begin
     id 9 
     name rfoot
     direction -0.0688927 -0.189281 0.979503   
     length 2.20493  
     axis -90 -7.62852e-016 -20   XYZ
    dof rx rz
    limits (-45.0 90.0)
           (-20.0 70.0)
  end
  begin
     id 10 
     name rtoes
     direction -1.53567e-011 -4.21933e-011 1   
     length 1.10919   
     axis -90 -7.62852e-016 -20   XYZ
    dof rx
    limits (-90.0 20.0)
  end
  begin
     id 11 
     name lowerback
     direction -0.0167868 0.989873 -0.140959   
     length 2.14596   
     axis 0 0 0   XYZ
    dof rx ry rz
    limits (-20.0 45.0)
           (-30.0 30.0)
           (-30.0 30.0)
  end
  begin
     id 12 
     name upperback
     direction 0.0129109 0.998033 0.0613525   
     length 2.10457   
     axis 0 0 0   XYZ
    dof rx ry rz
    limits (-20.0 45.0)
           (-30.0 30.0)
           (-30.0 30.0)
  end
  begin
     id 13 
     name thorax
     direction 0.0177047 0.991119 0.131797   
     length 2.17652   
     axis 0 0 0   XYZ
    dof rx ry rz
    limits (-20.0 45.0)
           (-30.0 30.0)
           (-30.0 30.0)
  end
  begin
     id 14 
     name lowerneck
     direction -0.0336893 0.997548 0.0613464   
     length 1.8912   
     axis 0 0 0   XYZ
    dof rx ry rz
    limits (-20.0 45.0)
           (-30.0 30.0)
           (-30.0 30.0)
  end
  begin
     id 15 
     name upperneck
     direction 0.0435909 0.997179 -0.0611028   
     length 1.8829   
     axis 0 0 0   XYZ
    dof rx ry rz
    limits (-20.0 45.0)
           (-30.0 30.0)
           (-30.0 30.0)
  end
  begin
     id 16
     name head
     direction 0.0175076 0.999444 -0.0283782  
     length 1.93197  
     axis 0 0 0   XYZ
    dof rx ry rz
    limits (-20.0 45.0)
           (-30.0 30.0)
           (-30.0 30.0)
  end
  begin
     id 17 
     name lclavicle
     direction 0.919164 0.389875 0.0559876  
     length 3.60004  
     axis 0 0 0   XYZ
    dof ry rz
    limits (-20.0 10.0)
           (0.0 20.0)
  end
  begin
     id 18 
     name lhumerus
     direction 1 -4.48958e-011 6.89191e-027   
     length 5.43301   
     axis 180 -30 -90   XYZ
    dof rx ry rz
    limits (-60.0 90.0)
           (-90.0 90.0)
           (-90.0 90.0)
  end
  begin
     id 19
     name lradius
     direction 1 -4.4897e-011 3.24727e-027   
     length 3.15936   
     axis 180 -30 -90   XYZ
    dof rx
    limits (-10.0 170.0)
  end
  begin
     id 20
     name lwrist
     direction 1 -4.4897e-011 9.00228e-027   
     length 1.57968   
     axis -6.29373e-015 90 90   XYZ
    dof ry
    limits (-180.0 0.0)
 end
  begin
     id 21 
     name lhand
     direction 1 -4.48968e-011 1.80042e-026   
     length 0.712827   
     axis -1.14882e-014 90 90   XYZ
    dof rx rz
    limits (-90.0 90.0)
           (-45.0 45.0)
  end
  begin
     id 22 
     name lfingers
     direction 1 -4.49019e-011 3.60267e-026   
     length 0.574699   
     axis -2.29769e-014 90 90   XYZ
    dof rx
    limits (0.0 90.0)
  end
  begin
     id 23
     name lthumb
     direction 0.707107 -6.3498e-011 0.707107   
     length 0.825157   
     axis -90 45 5.37419e-014   XYZ
    dof rx rz
    limits (-45.0 45.0)
           (-45.0 45.0)
  end
  begin
     id 24 
     name rclavicle
     direction -0.890334 0.455305 -0.00132111   
     length 3.51494  
     axis 0 0 0   XYZ 
    dof ry rz
    limits (-10.0 20.0)
           (-20.0 0.0)
  end
  begin
     id 25 
     name rhumerus
     direction -1 -4.48967e-011 5.07175e-028  
     length 5.34194   
     axis 180 30 90   XYZ
    dof rx ry rz
    limits (-90.0 60.0)
           (-90.0 90.0)
           (-90.0 90.0)
  end
  begin
     id 26 
     name rradius
     direction -1 -4.48955e-011 3.30467e-027   
     length 3.19351   
     axis 180 30 90   XYZ
    dof rx
    limits (-10.0 170.0)
  end
  begin
     id 27 
     name rwrist
     direction -1 -4.48968e-011 9.00208e-027   
     length 1.59676   
     axis -6.29373e-015 -90 -90   XYZ
    dof ry
    limits (-180.0 0.0)
  end
  begin
     id 28
     name rhand
     direction -1 -4.49e-011 1.80099e-026   
     length 0.743862   
     axis -1.14882e-014 -90 -90   XYZ
    dof rx rz
    limits (-90.0 90.0)
           (-45.0 45.0)
  end
  begin
     id 29
     name rfingers
     direction -1 -4.49009e-011 3.6023e-026   
     length 0.599721   
     axis -2.29769e-014 -90 -90   XYZ
    dof rx
    limits (0.0 90.0)
  end
  begin
     id 30
     name rthumb
     direction -0.707107 -6.35025e-011 0.707107   
     length 0.861083   
     axis -90 -45 -5.37419e-014   XYZ
    dof rx rz
    limits (-45.0 45.0)
           (-45.0 45.0)
  end
:hierarchy
  begin
    root lhipjoint rhipjoint lowerback
    lhipjoint lfemur
    lfemur ltibia
    ltibia lfoot
    lfoot ltoes
    rhipjoint rfemur
    rfemur rtibia
    rtibia rfoot
    rfoot rtoes
    lowerback upperback
    upperback thorax
    thorax lowerneck lclavicle rclavicle
    lowerneck upperneck
    upperneck head
    lclavicle lhumerus
    lhumerus lradius
    lradius lwrist
    lwrist lhand lthumb
    lhand lfingers
    rclavicle rhumerus
    rhumerus rradius
    rradius rwrist
    rwrist rhand rthumb
    rhand rfingers
  end

#!OML:ASF H:\Martial Arts Walks\Project 1\Capture day 1\Session 1\male.ASF
:FULLY-SPECIFIED
:DEGREES
1031
root -2.47973 13.0424 27.3519 7.81544 -28.3734 -18.2233
lowerback 13.1605 5.19245 10.4245
upperback 0.0282645 8.79725 5.03286
thorax -6.5903 4.00386 -2.00153
lowerneck -2.19996 0.504014 -2.69171
upperneck 5.30057 0.582694 3.79142
head 2.0306 0.327548 1.68281
rclavicle 7.32972e-014 2.92213e-014
rhumerus -37.5458 23.6212 -78.7831
rradius 51.7789
rwrist 14.6426
rhand -3.98701 -43.4507
rfingers 7.12502
rthumb 21.7664 -72.2468
lclavicle 7.32972e-014 2.92213e-014
lhumerus -20.394 -8.86451 82.7571
lradius 33.1036
lwrist -11.8319
lhand -21.4069 25.3124
lfingers 7.12502
lthumb 4.98151 55.2339
rfemur 15.9065 -3.08334 11.5089
rtibia 36.5689
rfoot -26.6581 -28.3265
rtoes -29.7541
lfemur -63.6312 37.1898 -1.65157
ltibia 83.6552
lfoot -16.295 -6.48954
ltoes 10.5423
1032
root -2.4836 13.0349 27.3611 7.86592 -28.2956 -18.2195
lowerback 13.1129 5.18207 10.4278
upperback 0.0275251 8.77704 5.03074
thorax -6.56543 3.99554 -1.99726
lowerneck -2.31247 0.483154 -2.64756
upperneck 5.35613 0.557181 3.72816
head 2.06962 0.31537 1.65564
rclavicle -9.1632e-014 1.17034e-014
rhumerus -37.5313 23.6191 -78.7969
rradius 51.7697
rwrist 14.6086
rhand -3.90312 -43.4993
rfingers 7.12502
rthumb 21.847 -72.286
lclavicle -9.1632e-014 1.17034e-014
lhumerus -20.3558 -8.82632 82.762
lradius 33.0427
lwrist -11.969
lhand -21.4673 25.287
lfingers 7.12502
lthumb 4.92314 55.2098
rfemur 15.9401 -3.10649 11.5312
rtibia 36.5266
rfoot -26.617 -28.4192
rtoes -29.7809
lfemur -63.7669 37.1399 -1.68567
ltibia 83.7596
lfoot -16.3616 -6.49177
ltoes 10.5069
1033
root -2.4862 13.0223 27.3663 7.93732 -28.2075 -18.2763
lowerback 13.1074 5.15894 10.4868
upperback 0.0282315 8.75414 5.03339
thorax -6.55582 3.98285 -2.02132
lowerneck -2.46609 0.493875 -2.62651
upperneck 5.41705 0.572186 3.72758
head 2.11677 0.324799 1.65441
rclavicle -3.25525e-014 -1.55052e-014
rhumerus -37.4814 23.5826 -78.8262
rradius 51.74
rwrist 14.526
rhand -3.97156 -43.4501
rfingers 7.12502
rthumb 21.7813 -72.2445
lclavicle -3.25525e-014 -1.55052e-014
lhumerus -20.2835 -8.74969 82.7488
lradius 32.9284
lwrist -12.1294
lhand -21.3539 25.2894
lfingers 7.12502
lthumb 5.03266 55.2097
rfemur 15.9502 -3.14766 11.6
rtibia 36.516
rfoot -26.5621 -28.5274
rtoes -29.8616
lfemur -63.9732 37.1221 -1.68274
ltibia 83.8916
lfoot -16.3872 -6.52172
ltoes 10.4239
1034
root -2.48991 13.0205 27.374 7.98027 -28.1335 -18.2888
lowerback 13.1007 5.18719 10.5511
upperback -0.0335996 8.8078 5.03378
thorax -6.60506 4.00244 -2.06539
lowerneck -2.29207 0.441772 -2.70015
upperneck 5.37589 0.501244 3.76542
head 2.07472 0.287222 1.67584
rclavicle -7.53145e-014 4.08502e-014
rhumerus -37.6439 23.3841 -78.8193
rradius 51.7721
rwrist 14.4757
rhand -3.96975 -43.408
rfingers 7.12502
rthumb 21.783 -72.2022
lclavicle -7.53145e-014 4.08502e-014
lhumerus -20.322 -8.82722 82.8432
lradius 32.8215
lwrist -12.2394
lhand -21.2427 25.2561
lfingers 7.12502
lthumb 5.14 55.1737
rfemur 15.9787 -3.1749 11.6393
rtibia 36.4863
rfoot -26.6155 -28.5361
rtoes -29.8655
lfemur -64.0474 37.0688 -1.69117
ltibia 83.9566
lfoot -16.4513 -6.52379
ltoes 10.3295
1035
root -2.49334 13.0163 27.3817 8.02826 -28.0904 -18.3054
lowerback 13.0553 5.18384 10.5724
upperback -0.0241447 8.79875 5.03756
thorax -6.56766 3.99989 -2.06566
lowerneck -2.2897 0.434159 -2.70557
upperneck 5.33715 0.49294 3.75234
head 2.06188 0.282565 1.67185
rclavicle -6.47945e-014 -3.01407e-014
rhumerus -37.6354 23.3632 -78.8317
rradius 51.7946
rwrist 14.4021
rhand -3.94348 -43.4373
rfingers 7.12502
rthumb 21.8082 -72.2285
lclavicle -6.47945e-014 -3.01407e-014
lhumerus -20.2776 -8.76166 82.8441
lradius 32.7474
lwrist -12.3286
lhand -21.1435 25.196
lfingers 7.12502
lthumb 5.23583 55.1113
rfemur 15.9965 -3.19955 11.6591
rtibia 36.4657
rfoot -26.6145 -28.5868
rtoes -30.0012
lfemur -64.1341 37.0695 -1.69975
ltibia 84.035
lfoot -16.5025 -6.55706
ltoes 10.3134
1036
root -2.49651 13.0128 27.3865 8.0543 -28.05 -18.2977
lowerback 13.1348 5.17904 10.504
upperback -0.0773029 8.80306 5.06339
thorax -6.68423 3.99658 -2.01541
lowerneck -2.02305 0.461965 -2.81043
upperneck 5.11947 0.531172 3.8122
head 1.94203 0.298053 1.70552
rclavicle -3.3986e-014 3.91854e-014
rhumerus -37.7397 23.3965 -78.8619
rradius 51.8465
rwrist 14.3096
rhand -3.88965 -43.512
rfingers 7.12502
rthumb 21.8599 -72.2972
lclavicle -3.3986e-014 3.91854e-014
lhumerus -20.4092 -8.63664 82.8867
lradius 32.7628
lwrist -12.4661
lhand -20.9797 25.1694
lfingers 7.12502
lthumb 5.3939 55.0807
rfemur 16.0211 -3.36914 11.5587
rtibia 36.4275
rfoot -26.7027 -28.4047
rtoes -30.0302
lfemur -64.2122 37.0654 -1.73098
ltibia 84.0933
lfoot -16.5334 -6.58448
ltoes 10.2586
1037
root -2.49878 13.008 27.3909 8.0876 -28.0221 -18.3156
lowerback 13.1981 5.19171 10.5227
upperback -0.0985842 8.83486 5.06719
thorax -6.73796 4.00746 -2.03426
lowerneck -2.29154 0.416273 -2.68831
upperneck 5.36823 0.472089 3.6683
head 2.07269 0.27058 1.64134
rclavicle -1.13897e-013 -6.95001e-014
rhumerus -37.7987 23.3309 -78.8683
rradius 51.888
rwrist 14.2556
rhand -3.91402 -43.5628
rfingers 7.12502
rthumb 21.8365 -72.3507
lclavicle -1.13897e-013 -6.95001e-014
lhumerus -20.425 -8.67028 82.9227
lradius 32.7465
lwrist -12.4044
lhand -20.8371 25.2296
lfingers 7.12502
lthumb 5.53159 55.1374
rfemur 16.0453 -3.24081 11.6776
rtibia 36.3975
rfoot -26.707 -28.5521
rtoes -30.0592
lfemur -64.2827 37.0794 -1.72761
ltibia 84.1662
lfoot -16.5547 -6.62645
ltoes 10.3019
